<?xml version="1.0" standalone="no"?>
<!DOCTYPE svg PUBLIC "-//W3C//DTD SVG 20010904//EN"
 "http://www.w3.org/TR/2001/REC-SVG-20010904/DTD/svg10.dtd">
<svg version="1.0" xmlns="http://www.w3.org/2000/svg"
 width="1200.000000pt" height="1200.000000pt" viewBox="0 0 1200.000000 1200.000000"
 preserveAspectRatio="xMidYMid meet">

<g transform="translate(0.000000,1200.000000) scale(0.100000,-0.100000)"
fill="#000000" stroke="none">
<path d="M5960 11907 c-3 -2 -95 -7 -205 -11 -243 -7 -593 -44 -755 -78 -30
-6 -59 -12 -65 -13 -71 -8 -124 -19 -121 -24 2 -3 -8 -7 -22 -7 -42 -2 -88
-12 -212 -44 -63 -16 -124 -32 -135 -35 -104 -25 -115 -30 -111 -42 3 -7 1
-13 -3 -13 -5 0 -11 4 -13 10 -2 5 -27 2 -61 -8 -31 -10 -54 -22 -50 -27 5 -4
3 -5 -3 -2 -6 4 -45 -5 -85 -19 -41 -14 -90 -30 -109 -36 -19 -5 -39 -13 -45
-16 -5 -4 -14 -7 -20 -8 -5 -1 -27 -9 -48 -17 -20 -9 -38 -16 -40 -16 -4 1
-113 -43 -165 -67 -29 -13 -56 -24 -60 -24 -16 0 -531 -263 -527 -270 2 -3 -2
-7 -8 -7 -19 0 -251 -141 -412 -251 -322 -220 -567 -424 -855 -712 -513 -512
-898 -1063 -1195 -1705 -327 -710 -505 -1455 -534 -2245 -38 -1010 171 -1978
618 -2870 299 -597 667 -1099 1157 -1580 1055 -1035 2426 -1624 3904 -1679
583 -22 1147 38 1696 179 1305 336 2441 1097 3260 2185 93 123 277 393 310
455 10 19 24 42 30 50 26 33 136 235 214 390 329 655 529 1353 600 2091 26
275 29 754 5 1039 -20 240 -72 603 -86 595 -4 -3 -5 4 -2 14 3 11 -3 52 -12
93 -9 40 -19 85 -22 101 -6 35 -66 274 -88 350 -9 31 -21 55 -26 52 -5 -3 -6
1 -3 9 8 21 -66 247 -78 240 -5 -3 -8 2 -7 12 4 23 -21 114 -31 114 -4 0 -7 6
-7 13 0 12 -77 210 -115 297 -48 108 -144 301 -205 413 -37 67 -75 139 -86
160 -10 20 -23 37 -28 37 -5 0 -8 3 -7 8 2 7 -21 53 -31 62 -3 3 -15 22 -26
43 -11 22 -30 50 -42 63 -12 13 -20 24 -18 24 10 0 -59 102 -71 107 -8 3 -14
13 -14 24 0 10 -9 23 -20 29 -11 6 -18 14 -16 18 4 8 -172 251 -207 286 -9 10
-17 20 -17 24 0 4 -15 23 -34 44 -18 20 -43 50 -55 67 -13 17 -27 28 -33 25
-6 -4 -8 -2 -5 3 7 11 -37 65 -158 192 -180 189 -232 241 -245 241 -7 0 -11 3
-8 6 3 3 -15 24 -40 47 -26 23 -48 45 -50 49 -9 19 -202 178 -216 178 -10 0
-15 4 -12 9 3 4 -3 16 -14 26 -11 10 -20 15 -20 10 0 -4 -10 4 -21 19 -12 15
-27 25 -35 22 -8 -3 -11 0 -7 10 3 9 -1 14 -12 14 -9 0 -33 16 -52 35 -19 19
-68 59 -108 88 -161 115 -260 181 -267 179 -5 -1 -8 2 -8 7 0 5 -13 14 -30 21
-16 7 -30 16 -30 19 0 4 -18 17 -40 29 -23 12 -38 17 -35 12 3 -5 0 -12 -6
-16 -7 -4 -9 -3 -6 3 10 16 -14 39 -65 66 -26 14 -59 33 -75 44 -60 41 -312
173 -332 173 -5 0 -14 7 -21 15 -7 8 -27 17 -46 21 -19 3 -31 10 -28 15 3 5 2
8 -3 7 -4 -1 -31 10 -58 24 -80 42 -177 78 -188 71 -5 -3 -7 -2 -4 4 4 6 -12
16 -36 23 -23 6 -48 17 -54 22 -9 7 -13 7 -13 -1 0 -7 -5 -9 -10 -6 -6 4 -8
10 -5 14 2 5 -15 13 -38 20 -23 7 -51 16 -62 21 -23 10 -188 68 -195 68 -3 1
-12 3 -20 6 -101 38 -160 53 -166 44 -5 -7 -2 -8 6 -3 9 5 11 4 6 -4 -4 -6
-12 -9 -17 -5 -5 3 -7 9 -4 14 6 9 -39 26 -92 35 -18 3 -44 10 -58 15 -14 5
-36 12 -48 14 -12 3 -71 16 -131 31 -85 20 -116 24 -138 16 -16 -6 -26 -6 -23
-1 8 14 -23 26 -98 39 -55 10 -72 9 -85 -1 -13 -11 -15 -11 -10 3 6 16 -17 20
-212 44 -19 2 -69 8 -110 14 -41 5 -120 12 -175 16 -55 3 -112 8 -127 11 -17
3 -28 1 -28 -5 0 -6 -5 -11 -11 -11 -5 0 -7 5 -4 10 4 6 -32 10 -102 10 -59 0
-137 3 -173 6 -36 3 -67 4 -70 1z m300 -2367 c863 -63 1674 -437 2271 -1047
172 -176 302 -333 417 -504 540 -806 730 -1764 537 -2714 -111 -546 -353
-1058 -714 -1510 -109 -136 -352 -385 -486 -496 -450 -376 -1021 -649 -1580
-758 -274 -53 -482 -71 -760 -66 -553 10 -1032 127 -1525 371 -357 177 -639
382 -930 673 -395 396 -671 841 -852 1371 -211 617 -242 1294 -92 1950 184
797 666 1534 1329 2029 505 378 1094 613 1715 685 231 27 450 32 670 16z"/>
<path d="M5830 8640 c-894 -58 -1711 -575 -2142 -1356 -99 -179 -183 -379
-227 -539 -12 -44 -26 -93 -31 -110 -12 -40 -46 -228 -61 -340 -18 -131 -15
-504 5 -640 78 -525 247 -923 562 -1320 76 -97 247 -280 273 -294 15 -8 16 75
13 977 -3 683 0 1026 8 1112 41 454 218 832 531 1135 126 122 201 180 336 261
308 185 704 278 1048 244 253 -24 446 -79 660 -186 167 -84 291 -172 433 -309
267 -258 433 -557 514 -925 20 -94 23 -131 23 -355 -1 -222 -3 -262 -23 -355
-153 -707 -688 -1240 -1397 -1392 -99 -21 -135 -23 -355 -23 -215 0 -257 3
-345 22 -260 58 -493 160 -692 305 -29 21 -55 38 -58 38 -3 0 -5 -227 -5 -504
l0 -503 61 -27 c33 -15 117 -47 187 -71 675 -228 1392 -182 2027 131 161 79
319 177 455 283 118 91 150 120 273 245 318 322 547 726 666 1176 175 661 80
1392 -256 1980 -272 476 -644 826 -1143 1075 -96 48 -144 69 -295 125 -179 68
-454 122 -705 140 -157 11 -169 11 -340 0z"/>
<path d="M5826 6854 c-310 -61 -562 -291 -661 -604 -33 -104 -44 -279 -26
-396 54 -334 282 -594 611 -699 114 -37 304 -46 427 -21 334 69 587 309 680
646 21 79 29 276 13 364 -55 310 -277 576 -566 677 -140 49 -332 62 -478 33z"/>
</g>
</svg>
